<?xml version="1.0" encoding="utf-8"?>
<!DOCTYPE svg PUBLIC "-//W3C//DTD SVG 1.1//EN" "http://www.w3.org/Graphics/SVG/1.1/DTD/svg11.dtd">
<svg version="1.1" xmlns="http://www.w3.org/2000/svg" xmlns:xlink="http://www.w3.org/1999/xlink" viewBox="0 0 1000 1000" enable-background="new 0 0 1000 1000" xml:space="preserve">
<metadata> Svg Vector Icons : http://www.onlinewebfonts.com/icon </metadata>
<g><g transform="translate(0.000000,491.000000) scale(0.100000,-0.100000)"><path d="M3898.3,4798c-965.6-72-1909.2-423.8-2660.9-993.6c-165.9-123.9-197.9-141.9-205.9-111.9c-6,20-38,108-74,195.9c-80,195.9-141.9,245.9-271.9,209.9c-96-26-141.9-84-141.9-181.9c0-100-70,98,2588.9-7312.9c279.9-783.7,523.8-1451.4,541.8-1483.3c94-183.9,367.8-124,367.8,80c0,52-161.9,529.8-487.8,1439.4l-487.8,1361.4l104,94c335.9,303.9,879.6,633.7,1259.5,765.7c285.9,100,481.8,125.9,831.7,114c363.8-14,701.7-68,1077.5-173.9c679.7-191.9,855.7-223.9,1251.5-221.9c435.8,0,785.7,60,1239.5,213.9c277.9,92,527.8,207.9,579.7,267.9c40,44,40,76,46,2808.8c2,1743.3-2,2784.8-14,2816.8c-46,117.9-215.9,153.9-329.9,68c-305.9-229.9-757.7-481.8-1085.5-607.7c-227.9-86-521.8-147.9-755.7-159.9c-389.8-22-681.7,64-1449.4,423.8C5101.8,4746,4594,4848,3898.3,4798z M4530,4382.2c10-18,411.8-1519.4,411.8-1541.4c0-6-120-10-263.9-6c-293.9,8-603.7-18-897.6-76c-203.9-40-633.7-151.9-675.7-177.9c-18-12,62-239.9,315.9-891.6c187.9-479.8,341.9-883.6,341.9-897.6c-2-12-107.9-74-237.9-135.9C3252.6,523.8,2942.7,323.9,2644.8,84c-114-92-217.9-171.9-229.9-175.9c-14-6-157.9,369.9-357.8,925.6l-335.9,935.6l66,56c233.9,197.9,661.7,459.8,1039.6,635.7c129.9,60,235.9,117.9,235.9,129.9c0,12-125.9,343.9-279.9,737.7c-153.9,395.8-273.9,723.7-263.9,731.7c22,20,285.9,112,485.8,167.9c215.9,62,439.8,106,697.7,139.9C3918.3,4396.2,4514,4406.2,4530,4382.2z M6183.3,3796.4c229.9-94,431.8-155.9,615.8-187.9c211.9-38,583.7-38,791.7,0c88,16,169.9,30,181.9,30c12,0,42-265.9,78-733.7c32-405.8,60-739.7,62-743.7c4-4,90,22,191.9,58c207.9,72,573.8,249.9,785.7,379.8c78,46,145.9,88,155.9,94c8,4,14-387.8,14-871.6V939.6l-94-48c-145.9-72-513.8-203.9-723.7-259.9c-102-28-189.9-54-195.9-58c-4-4,20-347.9,54-761.7c34-415.8,56-761.7,50-769.7c-32-52-765.7-76-969.6-30c-48,10-56,36-225.9,781.7c-96,423.8-169.9,775.7-165.9,781.7c6,6,122-6,255.9-24c135.9-18,317.9-32,405.8-32c149.9,0,561.7,46,579.7,64c8,8-111.9,1539.3-121.9,1551.3c-2,4-96-8-207.9-28c-385.8-64-781.7-16-1177.5,139.9c-72,28-130,50-134,46c-2-2,82-379.8,185.9-839.6c106-459.8,185.9-839.6,181.9-845.6c-6-4-175.9,34-377.9,88c-201.9,54-475.8,124-607.7,153.9c-132,28-257.9,60-279.9,70c-34,12-80,161.9-285.9,941.6c-134,509.8-243.9,935.6-243.9,945.6c2,66,515.8-96,1045.5-327.9c199.9-88,363.9-155.9,365.8-153.9c4,4-307.9,1377.4-339.9,1499.4c-4,18-6,34-2,34C6033.4,3858.4,6101.4,3830.4,6183.3,3796.4z M5281.7,937.6c91.9-12,169.9-22,173.9-24c2-2,93.9-345.9,205.9-763.7c110-417.8,205.9-771.7,209.9-787.7c10-22-10-26-104-14c-519.8,60-927.6,50-1239.5-30c-92-24-171.9-38-177.9-32c-30,30-565.8,1483.4-553.8,1495.4c24,24,549.8,155.9,703.7,175.9C4646,977.6,5015.8,967.6,5281.7,937.6z"/></g></g>
</svg>